<svg id="visual" viewBox="0 0 900 600" width="900" height="600" xmlns="http://www.w3.org/2000/svg" xmlns:xlink="http://www.w3.org/1999/xlink" version="1.1"><path d="M0 79L21.5 82C43 85 86 91 128.8 93C171.7 95 214.3 93 257.2 93C300 93 343 95 385.8 89C428.7 83 471.3 69 514.2 62C557 55 600 55 642.8 66C685.7 77 728.3 99 771.2 102C814 105 857 89 878.5 81L900 73L900 0L878.5 0C857 0 814 0 771.2 0C728.3 0 685.7 0 642.8 0C600 0 557 0 514.2 0C471.3 0 428.7 0 385.8 0C343 0 300 0 257.2 0C214.3 0 171.7 0 128.8 0C86 0 43 0 21.5 0L0 0Z" fill="#004cbb"></path><path d="M0 109L21.5 110C43 111 86 113 128.8 115C171.7 117 214.3 119 257.2 119C300 119 343 117 385.8 110C428.7 103 471.3 91 514.2 87C557 83 600 87 642.8 98C685.7 109 728.3 127 771.2 130C814 133 857 121 878.5 115L900 109L900 71L878.5 79C857 87 814 103 771.2 100C728.3 97 685.7 75 642.8 64C600 53 557 53 514.2 60C471.3 67 428.7 81 385.8 87C343 93 300 91 257.2 91C214.3 91 171.7 93 128.8 91C86 89 43 83 21.5 80L0 77Z" fill="#0052ca"></path><path d="M0 133L21.5 138C43 143 86 153 128.8 156C171.7 159 214.3 155 257.2 150C300 145 343 139 385.8 133C428.7 127 471.3 121 514.2 118C557 115 600 115 642.8 123C685.7 131 728.3 147 771.2 152C814 157 857 151 878.5 148L900 145L900 107L878.5 113C857 119 814 131 771.2 128C728.3 125 685.7 107 642.8 96C600 85 557 81 514.2 85C471.3 89 428.7 101 385.8 108C343 115 300 117 257.2 117C214.3 117 171.7 115 128.8 113C86 111 43 109 21.5 108L0 107Z" fill="#0057d9"></path><path d="M0 187L21.5 191C43 195 86 203 128.8 202C171.7 201 214.3 191 257.2 182C300 173 343 165 385.8 162C428.7 159 471.3 161 514.2 161C557 161 600 159 642.8 168C685.7 177 728.3 197 771.2 199C814 201 857 185 878.5 177L900 169L900 143L878.5 146C857 149 814 155 771.2 150C728.3 145 685.7 129 642.8 121C600 113 557 113 514.2 116C471.3 119 428.7 125 385.8 131C343 137 300 143 257.2 148C214.3 153 171.7 157 128.8 154C86 151 43 141 21.5 136L0 131Z" fill="#005de8"></path><path d="M0 211L21.5 215C43 219 86 227 128.8 227C171.7 227 214.3 219 257.2 212C300 205 343 199 385.8 195C428.7 191 471.3 189 514.2 190C557 191 600 195 642.8 205C685.7 215 728.3 231 771.2 231C814 231 857 215 878.5 207L900 199L900 167L878.5 175C857 183 814 199 771.2 197C728.3 195 685.7 175 642.8 166C600 157 557 159 514.2 159C471.3 159 428.7 157 385.8 160C343 163 300 171 257.2 180C214.3 189 171.7 199 128.8 200C86 201 43 193 21.5 189L0 185Z" fill="#0063f7"></path><path d="M0 283L21.5 288C43 293 86 303 128.8 300C171.7 297 214.3 281 257.2 270C300 259 343 253 385.8 249C428.7 245 471.3 243 514.2 241C557 239 600 237 642.8 245C685.7 253 728.3 271 771.2 279C814 287 857 285 878.5 284L900 283L900 197L878.5 205C857 213 814 229 771.2 229C728.3 229 685.7 213 642.8 203C600 193 557 189 514.2 188C471.3 187 428.7 189 385.8 193C343 197 300 203 257.2 210C214.3 217 171.7 225 128.8 225C86 225 43 217 21.5 213L0 209Z" fill="#156cff"></path><path d="M0 409L21.5 417C43 425 86 441 128.8 435C171.7 429 214.3 401 257.2 380C300 359 343 345 385.8 351C428.7 357 471.3 383 514.2 385C557 387 600 365 642.8 363C685.7 361 728.3 379 771.2 391C814 403 857 409 878.5 412L900 415L900 281L878.5 282C857 283 814 285 771.2 277C728.3 269 685.7 251 642.8 243C600 235 557 237 514.2 239C471.3 241 428.7 243 385.8 247C343 251 300 257 257.2 268C214.3 279 171.7 295 128.8 298C86 301 43 291 21.5 286L0 281Z" fill="#2d77ff"></path><path d="M0 457L21.5 464C43 471 86 485 128.8 479C171.7 473 214.3 447 257.2 429C300 411 343 401 385.8 405C428.7 409 471.3 427 514.2 428C557 429 600 413 642.8 409C685.7 405 728.3 413 771.2 423C814 433 857 445 878.5 451L900 457L900 413L878.5 410C857 407 814 401 771.2 389C728.3 377 685.7 359 642.8 361C600 363 557 385 514.2 383C471.3 381 428.7 355 385.8 349C343 343 300 357 257.2 378C214.3 399 171.7 427 128.8 433C86 439 43 423 21.5 415L0 407Z" fill="#4082ff"></path><path d="M0 493L21.5 502C43 511 86 529 128.8 528C171.7 527 214.3 507 257.2 491C300 475 343 463 385.8 464C428.7 465 471.3 479 514.2 475C557 471 600 449 642.8 443C685.7 437 728.3 447 771.2 457C814 467 857 477 878.5 482L900 487L900 455L878.5 449C857 443 814 431 771.2 421C728.3 411 685.7 403 642.8 407C600 411 557 427 514.2 426C471.3 425 428.7 407 385.8 403C343 399 300 409 257.2 427C214.3 445 171.7 471 128.8 477C86 483 43 469 21.5 462L0 455Z" fill="#518dff"></path><path d="M0 601L21.5 601C43 601 86 601 128.8 601C171.7 601 214.3 601 257.2 601C300 601 343 601 385.8 601C428.7 601 471.3 601 514.2 601C557 601 600 601 642.8 601C685.7 601 728.3 601 771.2 601C814 601 857 601 878.5 601L900 601L900 485L878.5 480C857 475 814 465 771.2 455C728.3 445 685.7 435 642.8 441C600 447 557 469 514.2 473C471.3 477 428.7 463 385.8 462C343 461 300 473 257.2 489C214.3 505 171.7 525 128.8 526C86 527 43 509 21.5 500L0 491Z" fill="#6198ff"></path></svg>